
        <svg xmlns="http://www.w3.org/2000/svg" xmlns:xlink="http://www.w3.org/1999/xlink" version="1.1" width="3168.5393258426966" 
        height="1348.314606741573" viewBox="0 0 3168.5393258426966 1348.314606741573">
			
			<g transform="scale(8.426966292134832) translate(10, 10)">
				<defs id="SvgjsDefs5139"></defs><g id="SvgjsG5140" featureKey="symbolFeature-0" transform="matrix(2,0,0,2,-12,8.69000244140625)" fill="#112d4e"><g xmlns="http://www.w3.org/2000/svg"><path d="M6,42.0350037c0,1.7700195,1.4400024,3.210022,3.210022,3.210022h15.4599609v7.0999756H23.710022   c-0.5499878,0-1,0.4500122-1,1c0,0.5599976,0.4500122,1,1,1h14.5800171c0.5499878,0,1-0.4400024,1-1c0-0.5499878-0.4500122-1-1-1   h-0.9700317v-7.0999756h15.4700317C54.5599976,45.2450256,56,43.8050232,56,42.0350037v-2.6900024H6V42.0350037z"></path><path d="M52.7900391,7.6549988H9.210022C7.4400024,7.6549988,6,9.0950012,6,10.8650208v26.4799805h50V10.8650208   C56,9.0950012,54.5599976,7.6549988,52.7900391,7.6549988z M24.5200195,19.6750183l-10.6500244,5.3400269v0.0599976   l10.6500244,5.3299561v1.8800049l-12.6300049-6.5100098v-1.4699707l12.6300049-6.5100098V19.6750183z M28.1300049,33.3750305   h-1.8300171l7.6000366-19.75h1.8599854L28.1300049,33.3750305z M50.1099854,25.8050232l-12.6300049,6.4799805v-1.8800049   l10.7300415-5.3299561v-0.0599976l-10.7300415-5.3400269v-1.8800049l12.6300049,6.4899902V25.8050232z"></path></g></g><g id="SvgjsG5141" featureKey="textGroupContainer" transform="matrix(1,0,0,1,355,0)" fill="#f9f7f7"><rect xmlns="http://www.w3.org/2000/svg" y="0" height="1" width="1" opacity="0"></rect><rect xmlns="http://www.w3.org/2000/svg" y="0" x="-235" width="3" height="140"></rect></g><g id="SvgjsG5142" featureKey="vMvB0T-0" transform="matrix(5.5741358429816215,0,0,5.5741358429816215,132.42586415701837,-6.806018822362162)" fill="#f9f7f7"><path d="M1.26 20 c-0.14 0 -0.26 -0.12 -0.26 -0.26 l0 -11.98 c0 -0.14 0.12 -0.26 0.26 -0.26 l2.88 0 c0.1 0 0.2 0.06 0.24 0.14 l3 7.4 l2.98 -7.4 c0.04 -0.08 0.14 -0.14 0.24 -0.14 l2.88 0 c0.14 0 0.26 0.12 0.26 0.26 l0 11.98 c0 0.14 -0.12 0.26 -0.26 0.26 l-2.34 0 c-0.14 0 -0.26 -0.12 -0.26 -0.26 l0 -6.44 l-2.44 6.2 c-0.04 0.08 -0.14 0.14 -0.22 0.14 l-1.68 0 c-0.1 0 -0.2 -0.06 -0.24 -0.14 l-2.46 -6.2 l0 6.44 c0 0.14 -0.12 0.26 -0.26 0.26 l-2.32 0 z M16 20 c-0.16 0 -0.26 -0.12 -0.26 -0.26 l0 -11.98 c0 -0.14 0.1 -0.26 0.26 -0.26 l4.88 0 c1.52 0 2.72 0.38 3.56 1.16 c1.24 1.12 1.66 3.24 1.06 4.8 c-0.22 0.56 -0.6 1.08 -1.08 1.46 c-0.28 0.22 -0.58 0.38 -0.88 0.54 c0.86 1.36 2.16 4.12 2.16 4.12 c0.02 0.04 0.06 0.1 0.06 0.16 c0 0.14 -0.12 0.26 -0.26 0.26 l-2.96 0 c-0.08 0 -0.18 -0.06 -0.22 -0.14 l-1.74 -3.82 c-0.62 0.04 -1.1 0.02 -1.74 0.02 l0 3.68 c0 0.14 -0.12 0.26 -0.26 0.26 l-2.58 0 z M18.84 13.280000000000001 c0 0 2.52 0.28 3.4 -0.3 c0.34 -0.22 0.54 -0.76 0.54 -1.16 c-0.02 -0.44 -0.24 -0.9 -0.6 -1.18 c-0.38 -0.32 -1.32 -0.42 -1.8 -0.42 l-1.54 0.04 l0 3.02 z M31.020000000000003 20 c-0.14 0 -0.24 -0.12 -0.24 -0.26 l0 -9.44 l-2.74 0 c-0.14 0 -0.26 -0.1 -0.26 -0.24 l0 -2.3 c0 -0.14 0.12 -0.26 0.26 -0.26 l8.58 0 c0.16 0 0.26 0.12 0.26 0.26 l0 2.3 c0 0.14 -0.1 0.24 -0.26 0.24 l-2.74 0 l0 9.44 c0 0.14 -0.12 0.26 -0.26 0.26 l-2.6 0 z"></path></g>
			</g>
		</svg>
	